<?xml version="1.0" encoding="UTF-8" standalone="no"?>
<!-- Generator: Adobe Illustrator 10.0.3, SVG Export Plug-In . SVG Version: 3.0.0 Build 77)  -->
<svg
   xmlns:ns0="http://ns.adobe.com/SaveForWeb/1.0/"
   xmlns:ns="http://ns.adobe.com/Variables/1.0/"
   xmlns:i="http://ns.adobe.com/AdobeIllustrator/10.0/"
   xmlns:dc="http://purl.org/dc/elements/1.1/"
   xmlns:cc="http://creativecommons.org/ns#"
   xmlns:rdf="http://www.w3.org/1999/02/22-rdf-syntax-ns#"
   xmlns:svg="http://www.w3.org/2000/svg"
   xmlns="http://www.w3.org/2000/svg"
   xmlns:sodipodi="http://sodipodi.sourceforge.net/DTD/sodipodi-0.dtd"
   xmlns:inkscape="http://www.inkscape.org/namespaces/inkscape"
   i:viewOrigin="207 518"
   i:rulerOrigin="-207 -274.2207"
   i:pageBounds="207 518 405.4248 274.2207"
   width="198.425"
   height="243.779"
   viewBox="0 0 198.425 243.779"
   overflow="visible"
   enable-background="new 0 0 198.425 243.779"
   xml:space="preserve"
   id="svg2"
   sodipodi:version="0.32"
   inkscape:version="0.46"
   sodipodi:docname="mspire_logo.svg"
   inkscape:output_extension="org.inkscape.output.svg.inkscape"><defs
   id="defs419"><inkscape:perspective
     sodipodi:type="inkscape:persp3d"
     inkscape:vp_x="0 : 121.8895 : 1"
     inkscape:vp_y="0 : 1000 : 0"
     inkscape:vp_z="198.425 : 121.8895 : 1"
     inkscape:persp3d-origin="99.212502 : 81.259669 : 1"
     id="perspective421" /></defs><sodipodi:namedview
   inkscape:window-height="754"
   inkscape:window-width="1280"
   inkscape:pageshadow="2"
   inkscape:pageopacity="0.0"
   guidetolerance="10.0"
   gridtolerance="10.0"
   objecttolerance="10.0"
   borderopacity="1.0"
   bordercolor="#666666"
   pagecolor="#ffffff"
   id="base"
   showgrid="false"
   inkscape:zoom="2.0264255"
   inkscape:cx="72.370517"
   inkscape:cy="140.94667"
   inkscape:window-x="0"
   inkscape:window-y="25"
   inkscape:current-layer="svg2" />
	<metadata
   id="metadata4">
		<ns:variableSets>
			<ns:variableSet
   varSetName="binding1"
   locked="none">
				<ns:variables />
				<ns:sampleDataSets />
			</ns:variableSet>
		</ns:variableSets>
		<ns0:sfw>
			<ns0:slices />
			<ns0:sliceSourceBounds
   y="274.221"
   x="207"
   width="198.425"
   height="243.779"
   bottomLeftOrigin="true" />
		</ns0:sfw>
	<rdf:RDF><cc:Work
     rdf:about=""><dc:format>image/svg+xml</dc:format><dc:type
       rdf:resource="http://purl.org/dc/dcmitype/StillImage" /></cc:Work></rdf:RDF></metadata>
	
<g
   id="g3592"><text
     id="text2800"
     y="95.04467"
     x="37.255386"
     style="font-size:6.26277781px;font-style:normal;font-weight:normal;fill:#000046;fill-opacity:1;stroke:none;stroke-width:1px;stroke-linecap:butt;stroke-linejoin:miter;stroke-opacity:1;font-family:Bitstream Vera Sans"
     xml:space="preserve"><tspan
       y="95.04467"
       x="37.255386"
       id="tspan2802"
       sodipodi:role="line">mass spectrometry proteomics in ruby</tspan></text>
<path
     style="font-size:40px;font-style:normal;font-weight:normal;fill:#800000;fill-opacity:1;stroke:none;stroke-width:1px;stroke-linecap:butt;stroke-linejoin:miter;stroke-opacity:1;font-family:Bitstream Vera Sans"
     d="M 37.676055,61.490849 L 39.156055,61.490849 C 40.756053,61.490849 40.916055,61.770851 40.916055,64.410849 L 40.916055,73.410849 C 40.916055,75.930846 40.796053,76.210849 39.436055,76.290849 L 37.596055,76.410849 L 37.596055,77.610849 C 41.436051,77.490849 41.556056,77.490849 42.676055,77.490849 C 43.796054,77.490849 44.836057,77.530849 47.436055,77.610849 L 47.436055,76.410849 L 45.756055,76.290849 C 44.396056,76.210849 44.276055,75.930846 44.276055,73.410849 L 44.276055,64.930849 C 44.276055,63.130851 46.916057,61.170849 49.316055,61.170849 C 51.476052,61.170849 52.956055,63.210852 52.956055,66.250849 L 52.956055,73.410849 C 52.956055,75.930846 52.836053,76.210849 51.476055,76.290849 L 49.636055,76.410849 L 49.636055,77.610849 C 53.636051,77.490849 53.636056,77.490849 54.636055,77.490849 C 55.636054,77.490849 55.636059,77.490849 59.636055,77.610849 L 59.636055,76.410849 L 57.796055,76.290849 C 56.436056,76.210849 56.316055,75.930846 56.316055,73.410849 L 56.316055,64.930849 C 56.316055,63.130851 58.956057,61.170849 61.356055,61.170849 C 63.516052,61.170849 64.996055,63.210852 64.996055,66.250849 L 64.996055,77.610849 C 67.436052,77.490849 67.476055,77.490849 68.156055,77.490849 C 68.676054,77.490849 68.676058,77.490849 71.716055,77.610849 L 71.716055,76.410849 L 69.836055,76.290849 C 68.476056,76.210849 68.356055,75.930846 68.356055,73.410849 L 68.356055,65.170849 C 68.356055,61.210853 66.036051,58.730849 62.356055,58.730849 C 60.956056,58.730849 59.796054,59.090849 59.076055,59.730849 L 56.036055,62.450849 C 54.756056,59.810851 53.116052,58.730849 50.356055,58.730849 C 48.876056,58.730849 47.756054,59.090849 47.036055,59.730849 L 44.276055,62.290849 L 44.276055,58.890849 L 44.264998,21.655668 C 42.922885,48.404676 41.88971,59.781906 37.676055,60.370849 L 37.676055,61.490849 M 73.908555,71.770849 C 73.908555,74.530846 73.788554,75.73085 73.468555,77.330849 C 75.548552,78.010848 77.108556,78.290849 78.948555,78.290849 C 84.188553,78.290849 87.908553,75.490845 87.908553,71.570849 C 87.908553,70.33085 87.548553,69.410848 86.788553,68.610849 C 85.748553,67.61085 84.428553,67.130848 80.908553,66.450849 C 77.628558,65.810849 76.548555,65.010847 76.548555,63.170849 C 76.548555,61.170851 77.948557,60.050849 80.388553,60.050849 C 83.068553,60.050849 85.108553,61.450851 85.108553,63.330849 L 85.108553,64.250849 L 86.228553,64.250849 C 86.268553,61.930851 86.308553,60.970848 86.428553,59.730849 C 84.308553,59.01085 82.868553,58.730849 81.228553,58.730849 C 76.588559,58.730849 73.748555,60.930852 73.748555,64.530849 C 73.748555,66.450847 74.628556,67.81085 76.468555,68.650849 C 77.548553,69.130848 79.668557,69.770849 82.388553,70.370849 C 84.188553,70.770848 84.948553,71.61085 84.948553,73.130849 C 84.948553,75.290847 82.948553,76.810849 80.108553,76.810849 C 77.188557,76.810849 75.108555,75.410847 75.108555,73.410849 L 75.108555,71.770849 L 73.908555,71.770849 M 89.621683,61.490849 L 91.101683,61.490849 C 92.701673,61.490849 92.861683,61.770851 92.861683,64.410849 L 92.861683,84.530849 C 92.861683,87.050846 92.741673,87.330849 91.381683,87.410849 L 89.541683,87.530849 L 89.541683,88.730849 C 93.541673,88.610849 93.541683,88.610849 94.541683,88.610849 C 95.541683,88.610849 95.541683,88.610849 99.541684,88.730849 L 99.541684,87.530849 L 97.701685,87.410849 C 96.341685,87.330849 96.221683,87.050846 96.221683,84.530849 L 96.221683,76.970849 C 97.421675,77.690848 98.701685,77.970849 100.50168,77.970849 C 101.66167,77.970849 102.70168,77.730848 103.34168,77.330849 L 107.90168,74.370849 C 109.50167,73.33085 111.38168,69.210846 111.38168,66.650849 C 111.38168,62.210853 107.70167,58.730849 103.06168,58.730849 C 101.58168,58.730849 100.14168,59.130849 99.501684,59.730849 L 96.221683,62.730849 L 96.221683,58.890849 L 96.210623,31.862247 C 95.566393,51.632397 92.788503,59.781906 89.621683,60.370849 L 89.621683,61.490849 M 96.221683,65.250849 C 96.221683,64.690849 96.421685,64.250848 96.941685,63.570849 C 98.101675,62.09085 99.741684,61.330849 101.74168,61.330849 C 105.50167,61.330849 107.90168,63.970853 107.90168,68.130849 C 107.90168,72.610844 105.22167,75.930849 101.62168,75.930849 C 99.421684,75.930849 97.781675,75.210847 96.221683,73.570849 L 96.221683,65.250849 M 120.80418,58.890849 L 120.44418,58.730849 C 118.40418,59.570848 116.32417,60.130849 114.20418,60.370849 L 114.20418,61.490849 L 115.68418,61.490849 C 117.28418,61.490849 117.44418,61.770851 117.44418,64.410849 L 117.44418,73.410849 C 117.44418,75.930846 117.32418,76.210849 115.96418,76.290849 L 114.12418,76.410849 L 114.12418,77.610849 C 118.12417,77.490849 118.12418,77.490849 119.12418,77.490849 C 120.12418,77.490849 120.12418,77.490849 124.12418,77.610849 L 124.12418,76.410849 L 122.28418,76.290849 C 120.92418,76.210849 120.80418,75.930846 120.80418,73.410849 L 120.80418,58.890849 M 118.96418,50.010849 C 117.76418,50.010849 116.72418,51.05085 116.72418,52.250849 C 116.72418,53.410848 117.76418,54.450849 118.92418,54.450849 C 120.08418,54.450849 121.16418,53.410848 121.16418,52.250849 C 121.16418,51.13085 120.08418,50.010849 118.96418,50.010849 M 125.8448,61.490849 L 127.3248,61.490849 C 128.9248,61.490849 129.0848,61.770851 129.0848,64.410849 L 129.0848,73.410849 C 129.0848,75.930846 128.9648,76.210849 127.6048,76.290849 L 125.7648,76.410849 L 125.7648,77.610849 C 128.6448,77.530849 129.6848,77.490849 130.6848,77.490849 C 131.4848,77.490849 131.48481,77.490849 136.4048,77.610849 L 136.4048,76.410849 L 134.3248,76.290849 C 132.5248,76.170849 132.4448,76.050846 132.4448,73.410849 L 132.4448,66.530849 C 132.4448,64.130851 134.0448,62.130849 136.0048,62.130849 C 137.2048,62.130849 138.0448,62.69085 138.6848,63.970849 L 139.5248,63.970849 L 139.8848,59.170849 C 139.4448,58.890849 138.7248,58.730849 138.0048,58.730849 C 136.8048,58.730849 135.5248,59.37085 134.6848,60.370849 L 132.4448,63.010849 L 132.4448,58.890849 L 132.0848,38.492161 C 131.78952,54.511177 129.36057,59.432963 125.8448,60.370849 L 125.8448,61.490849 M 158.18605,74.690849 L 157.66605,74.290849 C 155.10606,75.810847 154.18605,76.170849 152.46605,76.170849 C 149.86606,76.170849 147.70605,75.010847 146.58605,73.050849 C 145.82605,71.73085 145.54605,70.610846 145.46605,68.290849 L 151.30605,68.290849 C 154.06605,68.290849 155.78606,68.170848 158.54605,67.730849 C 158.58605,67.170849 158.62605,66.810848 158.62605,66.330849 C 158.62605,61.730853 155.66605,58.730849 151.18605,58.730849 C 149.70606,58.730849 147.98605,59.25085 146.34605,60.210849 C 143.06606,62.090847 141.74605,64.570853 141.74605,68.730849 C 141.74605,71.250846 142.34605,73.41085 143.42605,74.930849 C 145.02605,77.050847 147.70606,78.290849 150.70605,78.290849 C 152.18605,78.290849 153.66606,77.970848 155.30605,77.250849 C 156.38605,76.810849 157.22605,76.290849 157.38605,76.050849 L 158.18605,74.690849 M 155.06605,66.810849 C 152.98606,66.890849 152.02605,66.930849 150.58605,66.930849 C 148.74606,66.930849 147.70605,66.890849 145.54605,66.690849 C 145.54605,64.810851 145.70605,63.930848 146.22605,62.890849 C 147.06605,61.130851 148.78606,60.050849 150.70605,60.050849 C 152.02605,60.050849 153.06605,60.57085 153.78605,61.650849 C 154.66605,62.970847 154.94605,64.130851 155.06605,66.810849"
     id="path3590"
     sodipodi:nodetypes="cccccccscccccscccccscccccsccscccccsccsccccccccssccssccccsscsssccccccccccscccccsccssccccccccsssccccccccccccsccccccsssccccccccscccccscccsccccccccsccccsscscsccccsccssc" /></g></svg>